<?xml version="1.0" encoding="UTF-8" standalone="no"?>
<!-- Created with Inkscape (http://www.inkscape.org/) -->

<svg
   version="1.1"
   id="svg2"
   width="511.8436"
   height="511.90604"
   viewBox="0 0 511.8436 511.90604"
   xmlns="http://www.w3.org/2000/svg"
   xmlns:svg="http://www.w3.org/2000/svg">
  <defs
     id="defs6" />
  <g
     id="g8"
     transform="translate(-1.2234131,-1.483871)">
    <path
       style="fill:#ffffff"
       d="m 66.441603,511.82079 c -1.805,-0.88965 -4.10172,-2.7919 -5.10383,-4.22723 -4.01908,-5.75659 -60.1143599,-122.76654 -60.1143599,-125.39342 0,-3.77435 2.24093,-8.75827 5.12113,-11.38961 3.12792,-2.85766 140.1898769,-81.26244 145.3897869,-83.16862 7.41649,-2.71874 10.48015,-1.29955 22.39278,10.37309 l 10.59631,10.38284 11.74265,-11.68403 11.74266,-11.68402 -51.8603,-52.02296 c -49.19372,-49.348 -52.04775,-52.4086 -55.50563,-59.52296 -3.791407,-7.80056 -6.584657,-18.61782 -6.584657,-25.5 0,-6.58513 2.74789,-17.58072 6.122747,-24.5 4.18624,-8.58282 16.02115,-20.55778 24.58226,-24.87317 16.4534,-8.293645 34.89578,-8.081081 51.65716,0.59539 6.39413,3.30991 12.27029,8.81859 58.87214,55.19051 l 51.76904,51.5136 10.46151,-10.42591 10.46151,-10.42591 -9.93106,-10.092 c -5.46208,-5.5506 -10.40333,-11.33416 -10.98054,-12.85235 -2.55987,-6.73296 -2.68468,-6.47959 40.01517,-81.236275 22.58556,-39.541636 42.04806,-72.964379 43.25,-74.272763 2.65041,-2.885148 7.63229,-5.121121 11.41016,-5.121121 3.99523,0 122.89657,57.936975 126.97598,61.871495 3.76329,3.629643 5.03061,8.756726 3.45434,13.974966 -0.87637,2.901232 -16.19197,18.722953 -74.37938,76.837338 -64.24017,64.15953 -73.72854,73.26553 -76.9476,73.84662 -6.94939,1.25449 -9.57687,-0.1482 -20.82593,-11.11802 l -10.60591,-10.34262 -10.6296,10.71511 -10.62962,10.71511 3.4498,3.93784 c 5.83957,6.66568 11.36935,20.21567 11.40123,27.93716 0.0112,2.71774 0.18964,2.83706 3.26186,2.18144 6.91249,-1.47516 15.48535,-2.51707 20.86901,-2.53633 13.78701,-0.0493 31.67212,5.06339 44.08048,12.60108 7.04453,4.27932 16.37595,12.65712 18.35021,16.47491 1.71127,3.30923 1.875,8.65048 0.38589,12.5888 -0.58542,1.54831 -10.26005,12.05346 -21.49918,23.3448 l -20.43478,20.5297 6.53198,6.4703 c 7.12861,7.0613 9.16089,11.45478 8.04645,17.39522 -0.92898,4.9519 -5.85767,10.30347 -10.68692,11.60385 -6.29254,1.69441 -10.34039,-0.0339 -18.08952,-7.72364 l -6.79825,-6.74616 -20.25269,20.10427 c -11.13896,11.05735 -21.69282,20.83158 -23.45301,21.72052 -7.14719,3.60949 -14.29895,0.96363 -21.70209,-8.0289 -16.95928,-20.60028 -23.06753,-45.52817 -18.11166,-73.91408 l 0.70869,-4.05922 -6.8473,-1.26045 c -8.00332,-1.47325 -17.14075,-5.59579 -23.40536,-10.55982 l -4.44194,-3.51975 -11.71442,11.67811 -11.71441,11.67811 10.39197,10.65651 c 8.00388,8.20762 10.54573,11.47609 11.06104,14.22295 1.55462,8.28681 4.14899,5.3492 -73.36786,83.07419 -42.12327,42.23637 -74.008607,73.43916 -75.874207,74.25 -4.19065,1.82139 -8.00142,1.73784 -12.06393,-0.26449 z M 173.48011,339.24031 c -10.30532,-10.31604 -19.09495,-18.75644 -19.53251,-18.75644 -0.90461,0 -115.794657,65.68565 -117.023727,66.90552 -0.67536,0.67031 20.21123,45.05628 35.92695,76.34817 l 4.55094,9.06146 57.407657,-57.40114 57.40764,-57.40113 z m 199.5176,-43.31547 c -2.13392,-2.13392 -15.22987,-5.65617 -22.7743,-6.12531 -31.9553,-1.98709 -58.49604,23.1214 -58.33218,55.18434 0.0478,9.35935 1.03226,14.30157 4.42545,22.21757 l 2.00602,4.67984 37.65785,-37.65786 c 20.71183,-20.71183 37.36955,-37.94619 37.01716,-38.29858 z m -94.2521,-6.31205 c 11.66171,-5.29754 17.58021,-18.31643 13.99389,-30.78228 -1.65418,-5.74982 -2.37169,-6.53812 -43.33038,-47.60517 l -41.64834,-41.75853 -17.76868,17.74811 c -9.77277,9.76146 -17.76868,18.22045 -17.76868,18.79775 0,0.5773 18.1227,19.12069 40.27267,41.20753 29.88109,29.79594 41.42796,40.68194 44.75,42.18882 5.83686,2.64761 15.90963,2.74308 21.49952,0.20377 z M 471.43794,77.298404 C 471.03164,76.892105 452.0505,67.505866 429.25762,56.440095 390.39028,37.570292 387.7325,36.434292 386.4714,38.152192 c -2.15435,2.934676 -66.24798,115.212688 -66.24798,116.051938 0,0.41828 8.43454,9.20382 18.74344,19.52344 l 18.74344,18.76294 57.23319,-57.22669 c 31.47825,-31.47468 56.90075,-57.559117 56.49445,-57.965416 z M 168.71969,166.4876 186.69513,148.49134 176.20927,137.88003 c -6.88909,-6.97152 -12.2009,-11.42858 -15.48585,-12.99396 -21.39204,-10.19399 -44.25044,13.52523 -33.44536,34.70489 1.92202,3.76748 21.32274,24.89291 22.86061,24.89291 0.33307,0 8.69453,-8.09832 18.58102,-17.99627 z m 195.10804,343.97399 c -9.39097,-2.86259 -13.3645,-14.88829 -7.59611,-22.98926 3.19622,-4.48867 5.19898,-5.15602 19.84312,-6.61206 26.36967,-2.62187 45.27412,-10.16582 64.88965,-25.89468 25.25938,-20.25442 39.61884,-48.72692 42.13507,-83.54703 0.63234,-8.7505 1.1785,-11.20256 3.09456,-13.89342 6.2907,-8.83447 19.88003,-7.78068 25.25928,1.95873 1.69083,3.06134 1.86339,4.84347 1.37677,14.21944 -2.40041,46.2507 -27.45815,89.4139 -66.45981,114.48031 -9.00752,5.78914 -26.87781,13.97706 -36.64685,16.79109 -15.83037,4.56001 -39.61001,7.4029 -45.89568,5.48688 z m 0,-64.97728 c -9.74738,-3.04773 -13.44556,-15.27554 -7.12583,-23.56113 2.84506,-3.73006 5.50684,-4.67654 17.94504,-6.38094 19.58248,-2.68336 35.26484,-16.00907 41.50254,-35.26578 0.66051,-2.03907 1.56149,-7.28414 2.00219,-11.65571 0.91891,-9.11521 3.34805,-13.51873 8.68828,-15.75002 7.73694,-3.2327 15.65383,-0.56281 19.60965,6.61314 1.63598,2.96771 1.8442,4.79271 1.36912,12 -1.89858,28.80263 -19.67338,54.78299 -45.86575,67.03922 -11.57586,5.4167 -31.45585,9.04656 -38.12524,6.96122 z"
       id="path170" />
  </g>
</svg>
