<?xml version="1.0" encoding="UTF-8" standalone="no"?>
<!-- Created with Inkscape (http://www.inkscape.org/) -->

<svg
   version="1.1"
   id="svg268"
   width="511.98096"
   height="273.00006"
   viewBox="0 0 511.98096 273.00006"
   sodipodi:docname="camera-drone (3).png"
   inkscape:export-filename="..\..\..\Projeler\AKIS_DEMO\AKIS_DEMO\wwwroot\images\drone.svg"
   inkscape:export-xdpi="6.0002232"
   inkscape:export-ydpi="6.0002232"
   xmlns:inkscape="http://www.inkscape.org/namespaces/inkscape"
   xmlns:sodipodi="http://sodipodi.sourceforge.net/DTD/sodipodi-0.dtd"
   xmlns="http://www.w3.org/2000/svg"
   xmlns:svg="http://www.w3.org/2000/svg">
  <defs
     id="defs272" />
  <sodipodi:namedview
     id="namedview270"
     pagecolor="#ffffff"
     bordercolor="#000000"
     borderopacity="0.25"
     inkscape:showpageshadow="2"
     inkscape:pageopacity="0.0"
     inkscape:pagecheckerboard="0"
     inkscape:deskcolor="#d1d1d1"
     showgrid="false" />
  <g
     inkscape:groupmode="layer"
     inkscape:label="Image"
     id="g274"
     transform="translate(-0.01903334,-138.68275)">
    <path
       style="fill:#ffffff"
       d="m 103.39337,409.25157 c 1.79875,-7.16677 46.95674,-150.2082 47.65788,-150.96 0.69994,-0.75052 20.94875,6.05971 20.94875,7.04563 0,0.30096 -51.06993,140.88638 -52.52668,144.59556 -0.57481,1.46359 -1.99681,1.75 -8.68872,1.75 -7.97511,0 -7.99941,-0.008 -7.39123,-2.43119 z m 289.13331,0.68119 c -3.55787,-9.05906 -52.53713,-144.55873 -52.31746,-144.73468 1.84523,-1.47794 20.13569,-7.55572 20.75174,-6.89564 0.72062,0.77212 45.79791,143.50515 47.57138,150.63032 l 0.68448,2.75 h -8.00142 c -6.69191,0 -8.11391,-0.28641 -8.68872,-1.75 z M 207.45455,400.22821 205,397.77367 v -37.45656 -37.45656 l 3.07673,-2.5889 3.07672,-2.58889 H 256 300.84655 l 3.07672,2.58889 3.07673,2.5889 v 37.45656 37.45656 l -2.45455,2.45454 -2.45454,2.45455 H 256 209.90909 Z M 266.5,383.78282 c 13.3731,-6.20515 18.86565,-22.67223 11.77359,-35.29811 -10.16532,-18.09718 -34.86304,-18.0411 -44.65008,0.10138 -3.45519,6.40497 -3.95491,15.19077 -1.22837,21.59667 2.20676,5.18471 8.05125,11.24879 13.10486,13.59724 5.36685,2.49402 15.62811,2.4954 21,0.003 z m -16.32569,-17.41451 c -2.3113,-2.46027 -2.88564,-7.4879 -1.21253,-10.61414 1.62983,-3.04536 6.52063,-4.52844 10.07644,-3.05558 3.66429,1.5178 4.96178,3.70022 4.96178,8.34585 0,6.7611 -9.16132,10.28886 -13.82569,5.32387 z m -10.16315,-73.66335 c -2.20614,-4.38779 -4.01116,-8.21279 -4.01116,-8.5 0,-0.28721 9,-0.5222 20,-0.5222 11,0 20,0.23499 20,0.5222 0,0.28721 -1.80502,4.11221 -4.01116,8.5 l -4.01116,7.9778 H 256 244.02232 Z M 171.5,246.67692 l -51,-19.76501 -0.28498,-10.11458 -0.28499,-10.11457 h 40.81248 c 46.41398,0 43.81615,0.46826 47.17267,-8.50285 7.77106,-20.77 26.04075,-33.49715 48.08482,-33.49715 22.04407,0 40.31376,12.72715 48.08482,33.49715 3.35652,8.97111 0.75869,8.50285 47.17267,8.50285 h 40.81248 l -0.28499,10.14906 -0.28498,10.14907 -51.5,19.83666 -51.5,19.83667 -33,-0.10615 -33,-0.10614 z M 56.019708,231.39831 c -1.364161,-0.69023 -3.045027,-2.3711 -3.735259,-3.73526 -1.610111,-3.18219 -1.700573,-21.33047 -0.121106,-24.29603 2.356121,-4.42379 3.390573,-4.61917 24.632112,-4.65246 20.234262,-0.0317 20.302855,-0.0244 22.75,2.42275 2.320575,2.32057 2.454545,3.08024 2.454545,13.91821 0,6.30501 -0.27953,12.19211 -0.62118,13.08244 -1.454686,3.79085 -5.548681,4.54539 -24.57916,4.53006 -12.667582,-0.0102 -19.063018,-0.40098 -20.779952,-1.26971 z M 414.5,231.55981 c -4.05451,-2.28207 -4.5,-3.87729 -4.5,-16.11363 0,-11.25274 0.12456,-11.97889 2.45455,-14.30887 2.44529,-2.4453 2.53128,-2.45455 22.81143,-2.45455 26.50149,0 26.23781,-0.19506 25.57935,18.92214 -0.51467,14.94292 0.19925,14.51292 -24.62082,14.82923 -13.21204,0.16838 -20.38485,-0.1203 -21.72451,-0.87432 z M 68.666667,181.01609 C 68.3,180.64943 68,176.59943 68,172.01609 v -8.33333 H 36.454545 4.9090911 l -2.454546,-2.45455 c -3.24734902,-3.24734 -3.24734902,-7.84356 0,-11.0909 l 2.454546,-2.45455 H 36.435493 67.961896 l 0.63143,-2.51582 c 0.79735,-3.17689 4.932502,-6.48418 8.107274,-6.48418 3.741648,0 6.329991,1.82897 7.897478,5.58049 l 1.428762,3.41951 h 31.31227 31.31226 l 2.32715,2.47713 c 2.95771,3.14835 2.92491,7.93231 -0.0763,11.12697 l -2.22486,2.36824 -31.58867,0.26383 -31.58869,0.26383 -0.288933,8.75 -0.288933,8.75 h -7.7944 c -4.28692,0 -8.094401,-0.3 -8.461067,-0.66667 z m 358.122843,-8.04353 -0.28951,-8.7898 -31.43729,-0.26451 c -28.20333,-0.2373 -31.63557,-0.44304 -33.36476,-2 -2.83813,-2.55544 -3.80495,-5.82385 -2.63388,-8.90399 1.99631,-5.25072 2.09586,-5.26551 35.67251,-5.2997 l 31.23658,-0.0318 1.42876,-3.41951 c 1.56749,-3.75152 4.15583,-5.58049 7.89748,-5.58049 3.17477,0 7.30992,3.30729 8.10727,6.48418 l 0.63143,2.51582 h 31.52641 31.5264 l 2.45454,2.45455 c 1.54724,1.54723 2.45455,3.59708 2.45455,5.54545 0,1.94837 -0.90731,3.99822 -2.45455,5.54545 l -2.45454,2.45455 h -31.50652 -31.50652 l -0.28894,8.75 -0.28893,8.75 -8.21049,0.2898 -8.21048,0.28981 z"
       id="path278" />
  </g>
</svg>
